<svg width="27" height="27" viewBox="0 0 27 27" fill="none" xmlns="http://www.w3.org/2000/svg">
<mask id="path-1-outside-1_448:2" maskUnits="userSpaceOnUse" x="0" y="0" width="27" height="27" fill="black">
<rect fill="white" width="27" height="27"/>
<path fill-rule="evenodd" clip-rule="evenodd" d="M4.8 1C2.70132 1 1 2.70132 1 4.8V22.2C1 24.2987 2.70132 26 4.8 26H22.2C24.2987 26 26 24.2987 26 22.2V4.8C26 2.70132 24.2987 1 22.2 1H4.8ZM10.3457 13.53C10.3457 11.7907 11.7606 10.3757 13.5 10.3757C15.2394 10.3757 16.6543 11.7907 16.6543 13.53C16.6543 15.2694 15.2394 16.6843 13.5 16.6843C11.7606 16.6843 10.3457 15.2694 10.3457 13.53ZM8.06259 5.80952H18.9374C20.1811 5.80952 21.1905 6.8189 21.1905 8.06259V18.9374C21.1905 20.1811 20.1811 21.1905 18.9374 21.1905H8.06259C6.8189 21.1905 5.80952 20.1811 5.80952 18.9374V8.06259C5.80952 6.8189 6.8189 5.80952 8.06259 5.80952ZM9.44447 13.53C9.44447 15.7651 11.265 17.5856 13.5 17.5856C15.735 17.5856 17.5555 15.7651 17.5555 13.53C17.5555 11.295 15.735 9.47451 13.5 9.47451C11.265 9.47451 9.44447 11.295 9.44447 13.53ZM17.5555 8.57329C17.5555 9.06896 17.9611 9.47451 18.4567 9.47451C18.9524 9.47451 19.358 9.06896 19.358 8.57329C19.358 8.07761 18.9524 7.67206 18.4567 7.67206C17.9611 7.67206 17.5555 8.07761 17.5555 8.57329Z"/>
</mask>
<path d="M1.5 4.8C1.5 2.97746 2.97746 1.5 4.8 1.5V0.5C2.42518 0.5 0.5 2.42517 0.5 4.8H1.5ZM1.5 22.2V4.8H0.5V22.2H1.5ZM4.8 25.5C2.97746 25.5 1.5 24.0225 1.5 22.2H0.5C0.5 24.5748 2.42517 26.5 4.8 26.5V25.5ZM22.2 25.5H4.8V26.5H22.2V25.5ZM25.5 22.2C25.5 24.0225 24.0225 25.5 22.2 25.5V26.5C24.5748 26.5 26.5 24.5748 26.5 22.2H25.5ZM25.5 4.8V22.2H26.5V4.8H25.5ZM22.2 1.5C24.0225 1.5 25.5 2.97746 25.5 4.8H26.5C26.5 2.42518 24.5748 0.5 22.2 0.5V1.5ZM4.8 1.5H22.2V0.5H4.8V1.5ZM13.5 9.87574C11.4845 9.87574 9.8457 11.5145 9.8457 13.53H10.8457C10.8457 12.0668 12.0368 10.8757 13.5 10.8757V9.87574ZM17.1543 13.53C17.1543 11.5145 15.5155 9.87574 13.5 9.87574V10.8757C14.9632 10.8757 16.1543 12.0668 16.1543 13.53H17.1543ZM13.5 17.1843C15.5155 17.1843 17.1543 15.5456 17.1543 13.53H16.1543C16.1543 14.9933 14.9632 16.1843 13.5 16.1843V17.1843ZM9.8457 13.53C9.8457 15.5456 11.4845 17.1843 13.5 17.1843V16.1843C12.0368 16.1843 10.8457 14.9933 10.8457 13.53H9.8457ZM18.9374 5.30952H8.06259V6.30952H18.9374V5.30952ZM21.6905 8.06259C21.6905 6.54275 20.4572 5.30952 18.9374 5.30952V6.30952C19.905 6.30952 20.6905 7.09504 20.6905 8.06259H21.6905ZM21.6905 18.9374V8.06259H20.6905V18.9374H21.6905ZM18.9374 21.6905C20.4572 21.6905 21.6905 20.4572 21.6905 18.9374H20.6905C20.6905 19.905 19.905 20.6905 18.9374 20.6905V21.6905ZM8.06259 21.6905H18.9374V20.6905H8.06259V21.6905ZM5.30952 18.9374C5.30952 20.4572 6.54275 21.6905 8.06259 21.6905V20.6905C7.09504 20.6905 6.30952 19.905 6.30952 18.9374H5.30952ZM5.30952 8.06259V18.9374H6.30952V8.06259H5.30952ZM8.06259 5.30952C6.54275 5.30952 5.30952 6.54275 5.30952 8.06259H6.30952C6.30952 7.09504 7.09504 6.30952 8.06259 6.30952V5.30952ZM13.5 17.0856C11.5411 17.0856 9.94447 15.4889 9.94447 13.53H8.94447C8.94447 16.0412 10.9888 18.0856 13.5 18.0856V17.0856ZM17.0555 13.53C17.0555 15.4889 15.4589 17.0856 13.5 17.0856V18.0856C16.0112 18.0856 18.0555 16.0412 18.0555 13.53H17.0555ZM13.5 9.97451C15.4589 9.97451 17.0555 11.5711 17.0555 13.53H18.0555C18.0555 11.0188 16.0111 8.97451 13.5 8.97451V9.97451ZM9.94447 13.53C9.94447 11.5711 11.5411 9.97451 13.5 9.97451V8.97451C10.9888 8.97451 8.94447 11.0188 8.94447 13.53H9.94447ZM18.4567 8.97451C18.2372 8.97451 18.0555 8.79282 18.0555 8.57329H17.0555C17.0555 9.3451 17.6849 9.97451 18.4567 9.97451V8.97451ZM18.858 8.57329C18.858 8.79282 18.6763 8.97451 18.4567 8.97451V9.97451C19.2286 9.97451 19.858 9.3451 19.858 8.57329H18.858ZM18.4567 8.17206C18.6763 8.17206 18.858 8.35375 18.858 8.57329H19.858C19.858 7.80147 19.2286 7.17206 18.4567 7.17206V8.17206ZM18.0555 8.57329C18.0555 8.35375 18.2372 8.17206 18.4567 8.17206V7.17206C17.6849 7.17206 17.0555 7.80147 17.0555 8.57329H18.0555Z" fill="#ED1B24" mask="url(#path-1-outside-1_448:2)"/>
</svg>
