<svg width="25" height="25" viewBox="0 0 25 25" fill="none" xmlns="http://www.w3.org/2000/svg">
<path fill-rule="evenodd" clip-rule="evenodd" d="M3.8 0C1.70132 0 0 1.70132 0 3.8V21.2C0 23.2987 1.70132 25 3.8 25H21.2C23.2987 25 25 23.2987 25 21.2V3.8C25 1.70132 23.2987 0 21.2 0H3.8ZM9.3457 12.53C9.3457 10.7907 10.7606 9.37574 12.5 9.37574C14.2394 9.37574 15.6543 10.7907 15.6543 12.53C15.6543 14.2694 14.2394 15.6843 12.5 15.6843C10.7606 15.6843 9.3457 14.2694 9.3457 12.53ZM7.06259 4.80952H17.9374C19.1811 4.80952 20.1905 5.8189 20.1905 7.06259V17.9374C20.1905 19.1811 19.1811 20.1905 17.9374 20.1905H7.06259C5.8189 20.1905 4.80952 19.1811 4.80952 17.9374V7.06259C4.80952 5.8189 5.8189 4.80952 7.06259 4.80952ZM8.44447 12.53C8.44447 14.7651 10.265 16.5856 12.5 16.5856C14.735 16.5856 16.5555 14.7651 16.5555 12.53C16.5555 10.295 14.735 8.47451 12.5 8.47451C10.265 8.47451 8.44447 10.295 8.44447 12.53ZM16.5555 7.57329C16.5555 8.06896 16.9611 8.47451 17.4567 8.47451C17.9524 8.47451 18.358 8.06896 18.358 7.57329C18.358 7.07761 17.9524 6.67206 17.4567 6.67206C16.9611 6.67206 16.5555 7.07761 16.5555 7.57329Z" fill="white"/>
</svg>
