<svg width="27" height="27" viewBox="0 0 27 27" fill="none" xmlns="http://www.w3.org/2000/svg">
<mask id="path-1-outside-1_455:12" maskUnits="userSpaceOnUse" x="0" y="0" width="27" height="27" fill="black">
<rect fill="white" width="27" height="27"/>
<path fill-rule="evenodd" clip-rule="evenodd" d="M4.8 1C2.70132 1 1 2.70132 1 4.8V22.2C1 24.2987 2.70132 26 4.8 26H22.2C24.2987 26 26 24.2987 26 22.2V4.8C26 2.70132 24.2987 1 22.2 1H4.8ZM17.7917 8.99892C18.426 9.47734 19.2158 9.76093 20.0719 9.76093C20.0724 9.76093 20.0784 9.76093 20.0789 9.76048V10.4192V12.1949C19.2416 12.1952 18.428 12.0311 17.6608 11.7074C17.1674 11.4991 16.7077 11.2308 16.2873 10.9064L16.2999 16.3721C16.2946 17.6028 15.8077 18.7592 14.9265 19.6302C14.2093 20.3392 13.3005 20.79 12.3155 20.9359C12.0841 20.9702 11.8485 20.9878 11.6104 20.9878C10.556 20.9878 9.55489 20.6462 8.73605 20.016C8.58194 19.8974 8.43458 19.7687 8.29425 19.6302C7.33917 18.6862 6.84669 17.4068 6.9296 16.0609C6.99288 15.0364 7.40304 14.0594 8.08683 13.2936C8.99151 12.2802 10.2571 11.7177 11.6104 11.7177C11.8485 11.7177 12.0841 11.7355 12.3155 11.7698V12.4264V14.2527C12.0961 14.1804 11.8617 14.1405 11.6177 14.1405C10.3814 14.1405 9.38116 15.1492 9.39962 16.3864C9.41134 17.178 9.84376 17.87 10.4816 18.2515C10.7813 18.4308 11.1261 18.5418 11.4941 18.562C11.7823 18.5778 12.0592 18.5377 12.3155 18.453C13.1988 18.1612 13.836 17.3315 13.836 16.353L13.839 12.693V6.01093H16.2844C16.2867 6.25322 16.3113 6.48965 16.357 6.71875C16.5416 7.64599 17.0643 8.45049 17.7917 8.99892ZM20.0789 9.76035C20.079 9.7604 20.079 9.76044 20.0789 9.76048V9.76035Z"/>
</mask>
<path d="M17.7917 8.99892L18.0928 8.59974L18.0927 8.59968L17.7917 8.99892ZM20.0789 12.1949L20.0791 12.6949L20.5789 12.6947V12.1949H20.0789ZM17.6608 11.7074L17.4663 12.168L17.4664 12.1681L17.6608 11.7074ZM16.2873 10.9064L16.5927 10.5106L15.785 9.88743L15.7873 10.9076L16.2873 10.9064ZM16.2999 16.3721L16.7999 16.3742L16.7999 16.3709L16.2999 16.3721ZM14.9265 19.6302L14.575 19.2746L14.575 19.2746L14.9265 19.6302ZM12.3155 20.9359L12.3888 21.4305L12.3888 21.4305L12.3155 20.9359ZM8.73605 20.016L8.43101 20.4122L8.4311 20.4123L8.73605 20.016ZM8.29425 19.6302L7.94277 19.9858L7.94293 19.9859L8.29425 19.6302ZM6.9296 16.0609L6.43055 16.0301L6.43055 16.0302L6.9296 16.0609ZM8.08683 13.2936L8.45979 13.6266L8.45982 13.6265L8.08683 13.2936ZM12.3155 11.7698H12.8155V11.3384L12.3888 11.2752L12.3155 11.7698ZM12.3155 14.2527L12.1589 14.7276L12.8155 14.9441V14.2527H12.3155ZM9.39962 16.3864L9.89957 16.379L9.89956 16.379L9.39962 16.3864ZM10.4816 18.2515L10.7382 17.8224L10.7382 17.8224L10.4816 18.2515ZM11.4941 18.562L11.4666 19.0613L11.4667 19.0613L11.4941 18.562ZM12.3155 18.453L12.4724 18.9278L12.4724 18.9278L12.3155 18.453ZM13.836 16.353L13.336 16.3526V16.353H13.836ZM13.839 12.693L14.339 12.6934V12.693H13.839ZM13.839 6.01093V5.51093H13.339V6.01093H13.839ZM16.2844 6.01093L16.7844 6.0061L16.7796 5.51093H16.2844V6.01093ZM16.357 6.71875L16.8474 6.62114L16.8474 6.62093L16.357 6.71875ZM20.0789 9.76035L20.4325 9.4068L19.5789 8.55324V9.76035H20.0789ZM1.5 4.8C1.5 2.97746 2.97746 1.5 4.8 1.5V0.5C2.42518 0.5 0.5 2.42517 0.5 4.8H1.5ZM1.5 22.2V4.8H0.5V22.2H1.5ZM4.8 25.5C2.97746 25.5 1.5 24.0225 1.5 22.2H0.5C0.5 24.5748 2.42517 26.5 4.8 26.5V25.5ZM22.2 25.5H4.8V26.5H22.2V25.5ZM25.5 22.2C25.5 24.0225 24.0225 25.5 22.2 25.5V26.5C24.5748 26.5 26.5 24.5748 26.5 22.2H25.5ZM25.5 4.8V22.2H26.5V4.8H25.5ZM22.2 1.5C24.0225 1.5 25.5 2.97746 25.5 4.8H26.5C26.5 2.42518 24.5748 0.5 22.2 0.5V1.5ZM4.8 1.5H22.2V0.5H4.8V1.5ZM20.0719 9.26093C19.3281 9.26093 18.6432 9.01493 18.0928 8.59974L17.4906 9.3981C18.2087 9.93975 19.1036 10.2609 20.0719 10.2609V9.26093ZM19.7458 9.38759C19.7885 9.34947 19.8288 9.32675 19.8525 9.31471C19.8779 9.30177 19.8999 9.29338 19.9147 9.28825C19.9434 9.27826 19.967 9.27309 19.9785 9.27072C20.0025 9.26583 20.0215 9.26387 20.028 9.26321C20.0435 9.26167 20.0553 9.26127 20.0579 9.26118C20.0625 9.26102 20.0659 9.26098 20.0676 9.26096C20.0686 9.26095 20.0695 9.26094 20.0703 9.26094C20.0706 9.26094 20.071 9.26094 20.0713 9.26094C20.0714 9.26094 20.0716 9.26093 20.0717 9.26093C20.0718 9.26093 20.0719 9.26093 20.0719 9.26093V10.2609C20.0729 10.2609 20.0819 10.261 20.0929 10.2606C20.0971 10.2604 20.1106 10.2599 20.1273 10.2583C20.1345 10.2576 20.154 10.2555 20.1784 10.2505C20.1902 10.2481 20.2139 10.2429 20.2428 10.2329C20.2594 10.2271 20.3363 10.201 20.412 10.1334L19.7458 9.38759ZM20.5789 10.4192V9.76048H19.5789V10.4192H20.5789ZM20.5789 12.1949V10.4192H19.5789V12.1949H20.5789ZM17.4664 12.1681C18.2956 12.5179 19.1753 12.6952 20.0791 12.6949L20.0787 11.6949C19.3079 11.6952 18.5605 11.5444 17.8551 11.2467L17.4664 12.1681ZM15.9819 11.3023C16.4365 11.653 16.9334 11.9431 17.4663 12.168L17.8552 11.2468C17.4013 11.0552 16.979 10.8085 16.5927 10.5106L15.9819 11.3023ZM16.7999 16.3709L16.7873 10.9053L15.7873 10.9076L15.7999 16.3732L16.7999 16.3709ZM15.278 19.9858C16.2532 19.0219 16.7941 17.7386 16.7999 16.3742L15.7999 16.3699C15.7952 17.467 15.3623 18.4964 14.575 19.2746L15.278 19.9858ZM12.3888 21.4305C13.4786 21.2691 14.485 20.7697 15.278 19.9858L14.575 19.2746C13.9336 19.9086 13.1224 20.311 12.2423 20.4413L12.3888 21.4305ZM11.6104 21.4878C11.8732 21.4878 12.1332 21.4684 12.3888 21.4305L12.2423 20.4413C12.035 20.472 11.8239 20.4878 11.6104 20.4878V21.4878ZM8.4311 20.4123C9.33804 21.1102 10.4465 21.4878 11.6104 21.4878V20.4878C10.6654 20.4878 9.77175 20.1822 9.04099 19.6198L8.4311 20.4123ZM7.94293 19.9859C8.09776 20.1388 8.26057 20.281 8.43101 20.4122L9.04108 19.6198C8.90332 19.5138 8.7714 19.3987 8.64557 19.2744L7.94293 19.9859ZM6.43055 16.0302C6.33872 17.5208 6.88552 18.9409 7.94277 19.9858L8.64572 19.2746C7.79282 18.4316 7.35466 17.2929 7.42865 16.0917L6.43055 16.0302ZM7.71386 12.9605C6.95586 13.8095 6.5008 14.8928 6.43055 16.0301L7.42865 16.0918C7.48496 15.1801 7.85022 14.3093 8.45979 13.6266L7.71386 12.9605ZM11.6104 11.2177C10.1155 11.2177 8.7139 11.8404 7.71384 12.9606L8.45982 13.6265C9.26913 12.72 10.3988 12.2177 11.6104 12.2177V11.2177ZM12.3888 11.2752C12.1336 11.2374 11.8736 11.2177 11.6104 11.2177V12.2177C11.8235 12.2177 12.0346 12.2337 12.2423 12.2644L12.3888 11.2752ZM12.8155 12.4264V11.7698H11.8155V12.4264H12.8155ZM12.8155 14.2527V12.4264H11.8155V14.2527H12.8155ZM11.6177 14.6405C11.8069 14.6405 11.9885 14.6714 12.1589 14.7276L12.4721 13.7779C12.2037 13.6894 11.9165 13.6405 11.6177 13.6405V14.6405ZM9.89956 16.379C9.8853 15.4225 10.6587 14.6405 11.6177 14.6405V13.6405C10.1041 13.6405 8.87703 14.8759 8.89968 16.3939L9.89956 16.379ZM10.7382 17.8224C10.2415 17.5253 9.90859 16.9888 9.89957 16.379L8.89967 16.3938C8.91409 17.3673 9.44597 18.2147 10.2249 18.6806L10.7382 17.8224ZM11.5215 18.0628C11.2373 18.0472 10.9708 17.9615 10.7382 17.8224L10.2249 18.6805C10.5917 18.9 11.0149 19.0364 11.4666 19.0613L11.5215 18.0628ZM12.1587 17.9783C11.9599 18.0439 11.7454 18.0751 11.5215 18.0628L11.4667 19.0613C11.8192 19.0806 12.1585 19.0315 12.4724 18.9278L12.1587 17.9783ZM13.336 16.353C13.336 17.1085 12.8442 17.7518 12.1587 17.9783L12.4724 18.9278C13.5535 18.5707 14.336 17.5546 14.336 16.353H13.336ZM13.339 12.6926L13.336 16.3526L14.336 16.3534L14.339 12.6934L13.339 12.6926ZM13.339 6.01093V12.693H14.339V6.01093H13.339ZM16.2844 5.51093H13.839V6.51093H16.2844V5.51093ZM16.8474 6.62093C16.8079 6.42287 16.7864 6.21759 16.7844 6.0061L15.7844 6.01577C15.7871 6.28885 15.8148 6.55642 15.8667 6.81656L16.8474 6.62093ZM18.0927 8.59968C17.4605 8.12306 17.0074 7.42467 16.8474 6.62114L15.8667 6.81636C16.0759 7.86732 16.668 8.77791 17.4907 9.39817L18.0927 8.59968ZM19.7254 10.1139C19.6786 10.0671 19.5769 9.94508 19.579 9.75492C19.5811 9.55812 19.692 9.43462 19.7497 9.38419L20.4082 10.1368C20.4658 10.0863 20.5768 9.96276 20.5789 9.76591C20.581 9.57571 20.4793 9.45361 20.4325 9.4068L19.7254 10.1139ZM20.5789 9.76048V9.76035H19.5789V9.76048H20.5789Z" fill="#ED1B24" mask="url(#path-1-outside-1_455:12)"/>
</svg>
