<svg width="25" height="25" viewBox="0 0 25 25" fill="none" xmlns="http://www.w3.org/2000/svg">
<path fill-rule="evenodd" clip-rule="evenodd" d="M3.8 0C1.70132 0 0 1.70132 0 3.8V21.2C0 23.2987 1.70132 25 3.8 25H21.2C23.2987 25 25 23.2987 25 21.2V3.8C25 1.70132 23.2987 0 21.2 0H3.8ZM16.7917 7.99892C17.426 8.47734 18.2158 8.76093 19.0719 8.76093C19.0724 8.76093 19.0784 8.76093 19.0789 8.76048V9.41924V11.1949C18.2416 11.1952 17.428 11.0311 16.6608 10.7074C16.1674 10.4991 15.7077 10.2308 15.2873 9.90644L15.2999 15.3721C15.2946 16.6028 14.8077 17.7592 13.9265 18.6302C13.2093 19.3392 12.3005 19.79 11.3155 19.9359C11.0841 19.9702 10.8485 19.9878 10.6104 19.9878C9.55597 19.9878 8.55489 19.6462 7.73605 19.016C7.58194 18.8974 7.43458 18.7687 7.29425 18.6302C6.33917 17.6862 5.84669 16.4068 5.9296 15.0609C5.99288 14.0364 6.40304 13.0594 7.08683 12.2936C7.99151 11.2802 9.25714 10.7177 10.6104 10.7177C10.8485 10.7177 11.0841 10.7355 11.3155 10.7698V11.4264V13.2527C11.0961 13.1804 10.8617 13.1405 10.6177 13.1405C9.38136 13.1405 8.38116 14.1492 8.39962 15.3864C8.41134 16.178 8.84376 16.87 9.48155 17.2515C9.78126 17.4308 10.1261 17.5418 10.4941 17.562C10.7823 17.5778 11.0592 17.5377 11.3155 17.453C12.1988 17.1612 12.836 16.3315 12.836 15.353L12.839 11.693V5.01093H15.2844C15.2867 5.25322 15.3113 5.48965 15.357 5.71875C15.5416 6.64599 16.0643 7.45049 16.7917 7.99892ZM19.0789 8.76035C19.079 8.7604 19.079 8.76044 19.0789 8.76048V8.76035Z" fill="white"/>
</svg>
