<svg width="27" height="27" viewBox="0 0 27 27" fill="none" xmlns="http://www.w3.org/2000/svg">
<mask id="path-1-outside-1_455:5" maskUnits="userSpaceOnUse" x="0" y="0" width="27" height="27" fill="black">
<rect fill="white" width="27" height="27"/>
<path fill-rule="evenodd" clip-rule="evenodd" d="M4.8 1C2.70132 1 1 2.70132 1 4.8V22.2C1 24.2987 2.70132 26 4.8 26H22.2C24.2987 26 26 24.2987 26 22.2V4.8C26 2.70132 24.2987 1 22.2 1H4.8ZM19.1064 13.4164C18.9102 13.7267 18.8316 13.8811 19.1064 14.2282C19.1271 14.2566 19.2312 14.3611 19.3886 14.5191C20.0537 15.1866 21.6703 16.8088 21.9561 17.6834C22.1105 18.1977 21.842 18.4583 21.3122 18.4583H19.4535C18.9575 18.4583 18.7074 18.1853 18.166 17.5945C17.9358 17.3432 17.653 17.0345 17.2761 16.6648C16.1711 15.6201 15.6979 15.4841 15.4231 15.4841C14.9196 15.4841 14.9209 15.6251 14.9327 16.9355C14.9348 17.1681 14.9372 17.4374 14.9372 17.7493C14.9372 18.1977 14.7927 18.4583 13.6091 18.4583C11.6399 18.4583 9.47524 17.2846 7.93816 15.1186C5.63183 11.9452 4.99999 9.54326 4.99999 9.06018C4.99999 8.78676 5.10695 8.54238 5.63749 8.54238H7.49687C7.97358 8.54238 8.15278 8.74638 8.33624 9.25143C9.24503 11.8546 10.7786 14.129 11.4104 14.129C11.6477 14.129 11.7547 14.0206 11.7547 13.4313V10.7418C11.7117 9.97545 11.4395 9.64416 11.2379 9.3988C11.1134 9.24727 11.0159 9.12852 11.0159 8.9603C11.0159 8.75843 11.1922 8.54168 11.489 8.54168H14.4116C14.8033 8.54168 14.9358 8.74922 14.9358 9.21388V12.8299C14.9358 13.2174 15.1164 13.3534 15.2326 13.3534C15.4684 13.3534 15.6682 13.2174 16.1003 12.7931C17.439 11.3247 18.3854 9.05947 18.3854 9.05947C18.5022 8.78605 18.7204 8.54168 19.1936 8.54168H21.0522C21.6139 8.54168 21.7301 8.82643 21.6139 9.21388L21.6125 9.21459C21.3788 10.2778 19.11 13.4129 19.1064 13.4164Z"/>
</mask>
<path d="M19.1064 14.2282L19.5115 13.935L19.5051 13.9263L19.4984 13.9178L19.1064 14.2282ZM19.1064 13.4164L18.7529 13.0628L18.7136 13.1022L18.6839 13.1492L19.1064 13.4164ZM19.3886 14.5191L19.7427 14.1661L19.7427 14.1661L19.3886 14.5191ZM21.9561 17.6834L22.4351 17.5396L22.4313 17.5281L21.9561 17.6834ZM18.166 17.5945L18.5347 17.2567L18.5347 17.2567L18.166 17.5945ZM17.2761 16.6648L17.6263 16.3078L17.6196 16.3015L17.2761 16.6648ZM14.9327 16.9355L14.4327 16.9401L14.4327 16.9401L14.9327 16.9355ZM7.93816 15.1186L8.34595 14.8292L8.34262 14.8246L7.93816 15.1186ZM8.33624 9.25143L8.80834 9.08661L8.8062 9.08071L8.33624 9.25143ZM11.7547 10.7418H12.2547V10.7278L12.2539 10.7138L11.7547 10.7418ZM11.2379 9.3988L10.8516 9.71622L10.8516 9.71622L11.2379 9.3988ZM16.1003 12.7931L16.4506 13.1498L16.4605 13.1402L16.4698 13.13L16.1003 12.7931ZM18.3854 9.05947L17.9256 8.86293L17.924 8.86673L18.3854 9.05947ZM21.6139 9.21388L21.8376 9.6611L22.0308 9.56446L22.0929 9.35748L21.6139 9.21388ZM21.6125 9.21459L21.3889 8.76738L21.1754 8.87412L21.1242 9.10723L21.6125 9.21459ZM1.5 4.8C1.5 2.97746 2.97746 1.5 4.8 1.5V0.5C2.42518 0.5 0.5 2.42517 0.5 4.8H1.5ZM1.5 22.2V4.8H0.5V22.2H1.5ZM4.8 25.5C2.97746 25.5 1.5 24.0225 1.5 22.2H0.5C0.5 24.5748 2.42517 26.5 4.8 26.5V25.5ZM22.2 25.5H4.8V26.5H22.2V25.5ZM25.5 22.2C25.5 24.0225 24.0225 25.5 22.2 25.5V26.5C24.5748 26.5 26.5 24.5748 26.5 22.2H25.5ZM25.5 4.8V22.2H26.5V4.8H25.5ZM22.2 1.5C24.0225 1.5 25.5 2.97746 25.5 4.8H26.5C26.5 2.42518 24.5748 0.5 22.2 0.5V1.5ZM4.8 1.5H22.2V0.5H4.8V1.5ZM19.4984 13.9178C19.4459 13.8515 19.4291 13.8173 19.4249 13.8073C19.4234 13.8038 19.4304 13.8216 19.4282 13.849C19.4264 13.871 19.4205 13.8735 19.4353 13.8427C19.4519 13.8083 19.4789 13.763 19.529 13.6837L18.6839 13.1492C18.6011 13.28 18.4531 13.5022 18.4315 13.7679C18.4064 14.0763 18.5475 14.3278 18.7145 14.5386L19.4984 13.9178ZM19.7427 14.1661C19.6633 14.0864 19.6 14.0229 19.5539 13.9757C19.5307 13.952 19.5142 13.9348 19.5033 13.923C19.5008 13.9203 19.4988 13.9181 19.4973 13.9165C19.4958 13.9148 19.4952 13.9141 19.4952 13.9141C19.4952 13.9141 19.4955 13.9145 19.496 13.9151C19.4966 13.9157 19.4974 13.9168 19.4986 13.9182C19.5005 13.9205 19.5053 13.9265 19.5115 13.935L18.7014 14.5213C18.7389 14.5731 18.8034 14.6385 18.8385 14.6745C18.889 14.7261 18.9564 14.7938 19.0344 14.872L19.7427 14.1661ZM22.4313 17.5281C22.336 17.2364 22.1459 16.9216 21.9359 16.625C21.7203 16.3203 21.4586 16.0006 21.191 15.6945C20.6559 15.0823 20.0745 14.4991 19.7427 14.1661L19.0344 14.872C19.3677 15.2065 19.9273 15.7682 20.4381 16.3526C20.6936 16.6449 20.9312 16.9364 21.1198 17.2028C21.3141 17.4772 21.4332 17.6931 21.4808 17.8387L22.4313 17.5281ZM21.3122 18.9583C21.6377 18.9583 22.0132 18.881 22.2659 18.5943C22.5377 18.2858 22.5393 17.8873 22.435 17.5396L21.4772 17.8272C21.5017 17.9089 21.5001 17.9504 21.4988 17.9613C21.4981 17.9665 21.5002 17.9507 21.5156 17.9332C21.5284 17.9186 21.5316 17.9247 21.4997 17.9353C21.4662 17.9465 21.4061 17.9583 21.3122 17.9583V18.9583ZM19.4535 18.9583H21.3122V17.9583H19.4535V18.9583ZM17.7974 17.9323C18.0551 18.2135 18.2895 18.4726 18.5295 18.65C18.8011 18.8508 19.0904 18.9583 19.4535 18.9583V17.9583C19.3206 17.9583 19.2369 17.9294 19.1241 17.8459C18.9797 17.7392 18.8184 17.5663 18.5347 17.2567L17.7974 17.9323ZM16.926 17.0218C17.2926 17.3814 17.5677 17.6816 17.7974 17.9323L18.5347 17.2567C18.3039 17.0049 18.0133 16.6876 17.6262 16.3079L16.926 17.0218ZM15.4231 15.9841C15.4894 15.9841 15.8374 15.9926 16.9326 17.0282L17.6196 16.3015C16.5049 15.2475 15.9065 14.9841 15.4231 14.9841V15.9841ZM15.4327 16.931C15.4297 16.5993 15.4276 16.3565 15.4333 16.1713C15.4393 15.9772 15.4533 15.8954 15.4626 15.8652C15.4637 15.8616 15.4353 15.936 15.348 15.9777C15.3066 15.9975 15.2978 15.9841 15.4231 15.9841V14.9841C15.2967 14.9841 15.0992 14.9883 14.9168 15.0754C14.6885 15.1846 14.5667 15.3761 14.5067 15.5716C14.4548 15.7404 14.4399 15.9396 14.4337 16.1405C14.4273 16.3503 14.4298 16.6165 14.4327 16.9401L15.4327 16.931ZM15.4372 17.7493C15.4372 17.4349 15.4347 17.1635 15.4327 16.931L14.4327 16.9401C14.4348 17.1726 14.4372 17.4399 14.4372 17.7493H15.4372ZM13.6091 18.9583C14.2003 18.9583 14.6712 18.9008 14.992 18.6896C15.3948 18.4243 15.4372 18.0192 15.4372 17.7493H14.4372C14.4372 17.8422 14.4283 17.8727 14.4266 17.8773C14.4266 17.8773 14.4267 17.8772 14.4268 17.8769C14.4269 17.8767 14.427 17.8763 14.4272 17.8758C14.4277 17.8749 14.4283 17.8736 14.4292 17.872C14.431 17.8687 14.4334 17.865 14.4363 17.8613C14.4427 17.8532 14.4467 17.8513 14.442 17.8544C14.4284 17.8634 14.373 17.8931 14.2299 17.9181C14.0891 17.9427 13.8897 17.9583 13.6091 17.9583V18.9583ZM7.53039 15.4079C9.14049 17.6769 11.4451 18.9583 13.6091 18.9583V17.9583C11.8347 17.9583 9.81 16.8924 8.34592 14.8292L7.53039 15.4079ZM4.49999 9.06018C4.49999 9.25228 4.5555 9.54748 4.65302 9.89827C4.75464 10.2638 4.91306 10.7287 5.14353 11.2749C5.60474 12.3679 6.35818 13.7951 7.5337 15.4125L8.34262 14.8246C7.2118 13.2687 6.49617 11.9082 6.06487 10.8861C5.8491 10.3748 5.70541 9.95031 5.61648 9.63043C5.52346 9.29581 5.49999 9.10961 5.49999 9.06018H4.49999ZM5.63749 8.04238C5.30763 8.04238 4.98895 8.11714 4.76211 8.34938C4.53501 8.58188 4.49999 8.87067 4.49999 9.06018H5.49999C5.49999 9.04199 5.5009 9.02864 5.50203 9.01928C5.50315 9.00996 5.50429 9.00631 5.5041 9.00695C5.50306 9.01043 5.49616 9.02899 5.47747 9.04812C5.45892 9.06712 5.44795 9.067 5.46695 9.06089C5.48915 9.05376 5.54102 9.04238 5.63749 9.04238V8.04238ZM7.49687 8.04238H5.63749V9.04238H7.49687V8.04238ZM8.8062 9.08071C8.71041 8.81701 8.58578 8.53735 8.36026 8.3352C8.11036 8.11119 7.80947 8.04238 7.49687 8.04238V9.04238C7.66098 9.04238 7.68805 9.07558 7.69279 9.07983C7.72191 9.10594 7.77862 9.1808 7.86629 9.42214L8.8062 9.08071ZM11.4104 13.629C11.4714 13.629 11.4757 13.6516 11.4054 13.6062C11.344 13.5665 11.258 13.4957 11.1498 13.3844C10.9344 13.1629 10.6754 12.8269 10.3975 12.3956C9.84358 11.5358 9.25011 10.3521 8.8083 9.08662L7.86418 9.41623C8.33117 10.7539 8.95886 12.009 9.55686 12.9372C9.85495 13.3999 10.1545 13.7952 10.4328 14.0815C10.5714 14.2241 10.7161 14.3514 10.8629 14.4462C11.001 14.5354 11.1914 14.629 11.4104 14.629V13.629ZM11.2547 13.4313C11.2547 13.5663 11.2484 13.6566 11.2396 13.7159C11.2304 13.7782 11.222 13.7805 11.2352 13.7569C11.2432 13.7427 11.2579 13.7211 11.2819 13.6986C11.3065 13.6756 11.3338 13.6582 11.3605 13.6463C11.4091 13.6246 11.4382 13.629 11.4104 13.629V14.629C11.5013 14.629 11.6328 14.6199 11.7681 14.5595C11.9175 14.4928 12.0313 14.3821 12.1078 14.2454C12.2349 14.0184 12.2547 13.7213 12.2547 13.4313H11.2547ZM11.2547 10.7418V13.4313H12.2547V10.7418H11.2547ZM10.8516 9.71622C10.9512 9.83738 11.0337 9.94 11.1035 10.088C11.172 10.2335 11.2372 10.4441 11.2554 10.7697L12.2539 10.7138C12.2292 10.2731 12.1368 9.93491 12.0081 9.6618C11.8806 9.39128 11.7263 9.20558 11.6243 9.08138L10.8516 9.71622ZM10.5159 8.9603C10.5159 9.33805 10.7523 9.59536 10.8516 9.71622L11.6243 9.08138C11.5918 9.0419 11.5687 9.0136 11.5488 8.98746C11.5295 8.96209 11.5194 8.94653 11.5139 8.93702C11.509 8.92837 11.5101 8.92853 11.5122 8.93544C11.5145 8.94334 11.5159 8.95252 11.5159 8.9603H10.5159ZM11.489 8.04168C10.9266 8.04168 10.5159 8.47195 10.5159 8.9603H11.5159C11.5159 9.00231 11.4996 9.02414 11.4908 9.03272C11.485 9.03836 11.4797 9.04128 11.4767 9.04248C11.4734 9.0438 11.4765 9.04168 11.489 9.04168V8.04168ZM14.4116 8.04168H11.489V9.04168H14.4116V8.04168ZM15.4358 9.21388C15.4358 8.95937 15.405 8.65061 15.2213 8.40446C15.0091 8.12016 14.694 8.04168 14.4116 8.04168V9.04168C14.4682 9.04168 14.4831 9.04957 14.4748 9.04627C14.4599 9.04039 14.4367 9.02515 14.4199 9.0026C14.4068 8.98506 14.4125 8.9828 14.4205 9.0196C14.4287 9.05725 14.4358 9.11869 14.4358 9.21388H15.4358ZM15.4358 12.8299V9.21388H14.4358V12.8299H15.4358ZM15.2326 12.8534C15.3652 12.8534 15.4306 12.923 15.4456 12.9437C15.4636 12.9686 15.4358 12.9492 15.4358 12.8299H14.4358C14.4358 13.3326 14.7031 13.8534 15.2326 13.8534V12.8534ZM15.75 12.4363C15.5351 12.6473 15.4077 12.7561 15.3197 12.8136C15.249 12.8596 15.2336 12.8534 15.2326 12.8534V13.8534C15.7037 13.8534 16.0446 13.5486 16.4506 13.1498L15.75 12.4363ZM18.3854 9.05947C17.924 8.86673 17.924 8.86668 17.924 8.86663C17.924 8.86663 17.9241 8.86659 17.9241 8.86659C17.9241 8.86657 17.9241 8.8666 17.924 8.86665C17.924 8.86676 17.9239 8.86701 17.9237 8.86739C17.9234 8.86815 17.9229 8.86945 17.9221 8.87127C17.9205 8.87492 17.9181 8.88068 17.9148 8.88845C17.9081 8.90399 17.8979 8.92757 17.8844 8.95845C17.8572 9.02022 17.8165 9.11111 17.7634 9.22519C17.657 9.45355 17.5012 9.77371 17.3047 10.1385C16.9084 10.8741 16.3599 11.7662 15.7308 12.4562L16.4698 13.13C17.1794 12.3516 17.7734 11.3769 18.1851 10.6128C18.3925 10.2277 18.5569 9.88979 18.6698 9.64752C18.7263 9.52629 18.77 9.42874 18.7998 9.36089C18.8147 9.32697 18.8262 9.30045 18.834 9.28208C18.838 9.2729 18.841 9.26576 18.8431 9.26075C18.8442 9.25825 18.845 9.25627 18.8456 9.25484C18.8459 9.25413 18.8462 9.25355 18.8463 9.25311C18.8464 9.25289 18.8465 9.25271 18.8466 9.25256C18.8466 9.25248 18.8466 9.25239 18.8467 9.25235C18.8467 9.25228 18.8467 9.25221 18.3854 9.05947ZM19.1936 8.04168C18.8659 8.04168 18.5845 8.12828 18.3578 8.29662C18.1365 8.46092 18.0063 8.6742 17.9256 8.86294L18.8451 9.256C18.8813 9.17132 18.9186 9.12571 18.9539 9.09947C18.9839 9.07726 19.0481 9.04168 19.1936 9.04168V8.04168ZM21.0522 8.04168H19.1936V9.04168H21.0522V8.04168ZM22.0929 9.35748C22.1661 9.11317 22.2145 8.7529 21.9953 8.44347C21.7705 8.12615 21.3939 8.04168 21.0522 8.04168V9.04168C21.154 9.04168 21.2034 9.05505 21.219 9.06087C21.2256 9.0633 21.2219 9.06281 21.2127 9.05608C21.2029 9.04897 21.1906 9.03752 21.1793 9.0215C21.1548 8.98698 21.1544 8.96021 21.1546 8.96589C21.155 8.97528 21.1536 9.00829 21.135 9.07029L22.0929 9.35748ZM21.8361 9.66181L21.8376 9.6611L21.3903 8.76667L21.3889 8.76738L21.8361 9.66181ZM19.46 13.77C19.4765 13.7527 19.496 13.7299 19.4997 13.7252C19.5014 13.7231 19.504 13.7196 19.505 13.7183C19.5067 13.7161 19.5081 13.7143 19.5086 13.7136C19.5098 13.7119 19.511 13.7103 19.5117 13.7093C19.5135 13.7069 19.5156 13.704 19.518 13.7008C19.5228 13.6941 19.5296 13.6846 19.5383 13.6726C19.5557 13.6485 19.5808 13.6134 19.6127 13.5687C19.6764 13.4793 19.7673 13.351 19.8768 13.1939C20.0957 12.88 20.3901 12.4499 20.6922 11.9856C20.9937 11.5224 21.3065 11.0196 21.5602 10.5614C21.8048 10.1199 22.025 9.66702 22.1009 9.32196L21.1242 9.10723C21.0832 9.29377 20.9322 9.63145 20.6854 10.0769C20.448 10.5057 20.1495 10.9863 19.8541 11.4402C19.5594 11.893 19.2713 12.3138 19.0565 12.6219C18.9492 12.7759 18.8603 12.9014 18.7984 12.9882C18.7675 13.0317 18.7433 13.0654 18.7269 13.0881C18.7187 13.0995 18.7126 13.1079 18.7086 13.1134C18.7066 13.1162 18.7053 13.1179 18.7048 13.1187C18.7044 13.1192 18.7047 13.1188 18.7053 13.118C18.7055 13.1177 18.7066 13.1162 18.7082 13.1142C18.7091 13.113 18.7116 13.1096 18.7133 13.1075C18.717 13.1029 18.7364 13.0801 18.7529 13.0628L19.46 13.77Z" fill="#ED1B24" mask="url(#path-1-outside-1_455:5)"/>
</svg>
