<svg width="25" height="25" viewBox="0 0 25 25" fill="none" xmlns="http://www.w3.org/2000/svg">
<path fill-rule="evenodd" clip-rule="evenodd" d="M3.8 0C1.70132 0 0 1.70132 0 3.8V21.2C0 23.2987 1.70132 25 3.8 25H21.2C23.2987 25 25 23.2987 25 21.2V3.8C25 1.70132 23.2987 0 21.2 0H3.8ZM18.1064 12.4164C17.9102 12.7267 17.8316 12.8811 18.1064 13.2282C18.1271 13.2566 18.2312 13.3611 18.3886 13.5191C19.0537 14.1865 20.6702 15.8088 20.9561 16.6834C21.1105 17.1977 20.842 17.4583 20.3122 17.4583H18.4535C17.9575 17.4583 17.7074 17.1853 17.166 16.5945C16.9358 16.3432 16.653 16.0345 16.2761 15.6648C15.1711 14.6201 14.6979 14.4841 14.4231 14.4841C13.9196 14.4841 13.9209 14.6251 13.9327 15.9355C13.9348 16.1681 13.9372 16.4374 13.9372 16.7493C13.9372 17.1977 13.7927 17.4583 12.6091 17.4583C10.6399 17.4583 8.47524 16.2846 6.93816 14.1186C4.63183 10.9452 3.99999 8.54326 3.99999 8.06018C3.99999 7.78676 4.10695 7.54238 4.63749 7.54238H6.49687C6.97358 7.54238 7.15278 7.74638 7.33624 8.25143C8.24503 10.8546 9.77857 13.129 10.4104 13.129C10.6477 13.129 10.7547 13.0206 10.7547 12.4313V9.74176C10.7117 8.97545 10.4395 8.64416 10.2379 8.3988C10.1134 8.24727 10.0159 8.12852 10.0159 7.9603C10.0159 7.75843 10.1922 7.54168 10.489 7.54168H13.4116C13.8033 7.54168 13.9358 7.74922 13.9358 8.21388V11.8299C13.9358 12.2174 14.1164 12.3534 14.2326 12.3534C14.4684 12.3534 14.6682 12.2174 15.1003 11.7931C16.439 10.3247 17.3854 8.05947 17.3854 8.05947C17.5022 7.78605 17.7204 7.54168 18.1936 7.54168H20.0522C20.6139 7.54168 20.7301 7.82643 20.6139 8.21388L20.6125 8.21459C20.3788 9.2778 18.11 12.4129 18.1064 12.4164Z" fill="white"/>
</svg>
