<svg width="25" height="25" viewBox="0 0 25 25" fill="none" xmlns="http://www.w3.org/2000/svg">
<path fill-rule="evenodd" clip-rule="evenodd" d="M3.8 0C1.70132 0 0 1.70132 0 3.8V21.2C0 23.2987 1.70132 25 3.8 25H21.2C23.2987 25 25 23.2987 25 21.2V3.8C25 1.70132 23.2987 0 21.2 0H3.8ZM19.1593 16.0577C19.6566 16.3061 19.9265 16.4944 19.9689 16.6223C19.9903 16.6724 20.001 16.7468 20.0008 16.8466C20.0008 17.0384 19.9654 17.2887 19.8942 17.5976C19.8232 17.9066 19.7489 18.1498 19.6705 18.3272C19.5213 18.6826 19.0882 19.0591 18.3711 19.4567C17.7035 19.8188 17.0428 20 16.3896 20C16.1979 20 16.0115 19.9874 15.8303 19.9629C15.6492 19.9378 15.4452 19.8934 15.2176 19.8294C14.9906 19.7654 14.8217 19.7139 14.7117 19.6748C14.6017 19.6357 14.4046 19.5629 14.1204 19.4564C13.8365 19.3496 13.6625 19.2858 13.5986 19.2646C12.9026 19.0159 12.281 18.7211 11.7342 18.3803C10.8251 17.8193 9.88584 17.054 8.91639 16.0846C7.94698 15.1151 7.18164 14.1756 6.62082 13.2666C6.27996 12.7197 5.98522 12.0983 5.73668 11.4023C5.71537 11.3384 5.65138 11.1644 5.54496 10.8803C5.43839 10.5961 5.36559 10.3991 5.3266 10.2891C5.28764 10.1792 5.23611 10.0104 5.17223 9.78312C5.10824 9.55581 5.06384 9.35159 5.03899 9.17051C5.01413 8.98924 5.00171 8.80282 5.00171 8.61121C5.00171 7.95789 5.18279 7.29725 5.545 6.62978C5.94276 5.91258 6.31914 5.47937 6.67425 5.3303C6.85183 5.25205 7.095 5.17758 7.40403 5.10657C7.71295 5.03545 7.96325 5 8.15512 5C8.25445 5 8.32908 5.01075 8.37881 5.03205C8.50669 5.07452 8.69486 5.34452 8.9433 5.84157C9.0215 5.9765 9.12796 6.16833 9.26285 6.41676C9.39785 6.66531 9.52203 6.8909 9.6358 7.09329C9.74957 7.29572 9.85953 7.48568 9.96595 7.66311C9.98729 7.69166 10.0494 7.78035 10.1525 7.92949C10.2555 8.07871 10.3318 8.20461 10.3815 8.30778C10.4312 8.41073 10.4561 8.51203 10.4561 8.6114C10.4561 8.75341 10.3549 8.93088 10.1525 9.14398C9.95002 9.35696 9.73002 9.55234 9.49199 9.72976C9.25416 9.90719 9.03393 10.0955 8.83154 10.2942C8.62911 10.4931 8.52788 10.6566 8.52788 10.7843C8.52788 10.8483 8.54568 10.9282 8.58113 11.024C8.61658 11.1199 8.64676 11.1927 8.67161 11.2424C8.69647 11.2922 8.7462 11.3773 8.82083 11.4981C8.89535 11.6188 8.93628 11.6863 8.94337 11.7005C9.48311 12.6736 10.1011 13.508 10.797 14.2042C11.493 14.8999 12.3275 15.5179 13.3004 16.0577C13.3146 16.0649 13.3819 16.1057 13.503 16.1803C13.6238 16.2551 13.7088 16.3047 13.7584 16.3297C13.8084 16.3542 13.8812 16.3846 13.977 16.4201C14.0728 16.4554 14.1527 16.4733 14.2168 16.4733C14.3445 16.4733 14.5079 16.3721 14.7069 16.1696C14.9056 15.9672 15.0938 15.7472 15.2713 15.5092C15.4488 15.271 15.6441 15.051 15.8571 14.8485C16.0701 14.6462 16.2475 14.5449 16.3895 14.5449C16.489 14.5449 16.5902 14.5699 16.6932 14.6194C16.7964 14.6692 16.9223 14.7456 17.0715 14.8485C17.2207 14.9517 17.3095 15.0137 17.3378 15.035C17.5152 15.1414 17.7051 15.2515 17.9078 15.3651C18.1101 15.4788 18.3357 15.6031 18.5843 15.7381C18.8327 15.8731 19.0246 15.9795 19.1593 16.0577Z" fill="white"/>
</svg>
