<svg width="27" height="27" viewBox="0 0 27 27" fill="none" xmlns="http://www.w3.org/2000/svg">
<mask id="path-1-outside-1_455:17" maskUnits="userSpaceOnUse" x="0" y="0" width="27" height="27" fill="black">
<rect fill="white" width="27" height="27"/>
<path fill-rule="evenodd" clip-rule="evenodd" d="M4.8 1C2.70132 1 1 2.70132 1 4.8V22.2C1 24.2987 2.70132 26 4.8 26H22.2C24.2987 26 26 24.2987 26 22.2V4.8C26 2.70132 24.2987 1 22.2 1H4.8ZM20.1593 17.0577C20.6566 17.3061 20.9265 17.4944 20.9689 17.6223C20.9903 17.6724 21.001 17.7468 21.0008 17.8466C21.0008 18.0384 20.9654 18.2887 20.8942 18.5976C20.8232 18.9066 20.7489 19.1498 20.6705 19.3272C20.5213 19.6826 20.0882 20.0591 19.3711 20.4567C18.7035 20.8188 18.0428 21 17.3896 21C17.1979 21 17.0115 20.9874 16.8303 20.9629C16.6492 20.9378 16.4452 20.8934 16.2176 20.8294C15.9906 20.7654 15.8217 20.7139 15.7117 20.6748C15.6017 20.6357 15.4046 20.5629 15.1204 20.4564C14.8365 20.3496 14.6625 20.2858 14.5986 20.2646C13.9026 20.0159 13.281 19.7211 12.7342 19.3803C11.8251 18.8193 10.8858 18.054 9.91639 17.0846C8.94698 16.1151 8.18164 15.1756 7.62082 14.2666C7.27996 13.7197 6.98522 13.0983 6.73668 12.4023C6.71537 12.3384 6.65138 12.1644 6.54496 11.8803C6.43839 11.5961 6.36559 11.3991 6.3266 11.2891C6.28764 11.1792 6.23611 11.0104 6.17223 10.7831C6.10824 10.5558 6.06384 10.3516 6.03899 10.1705C6.01413 9.98924 6.00171 9.80282 6.00171 9.61121C6.00171 8.95789 6.18279 8.29725 6.545 7.62978C6.94276 6.91258 7.31914 6.47937 7.67425 6.3303C7.85183 6.25205 8.095 6.17758 8.40403 6.10657C8.71295 6.03545 8.96325 6 9.15512 6C9.25445 6 9.32908 6.01075 9.37881 6.03205C9.50669 6.07452 9.69486 6.34452 9.94329 6.84157C10.0215 6.9765 10.128 7.16833 10.2628 7.41676C10.3978 7.66531 10.522 7.8909 10.6358 8.09329C10.7496 8.29572 10.8595 8.48568 10.9659 8.66311C10.9873 8.69166 11.0494 8.78035 11.1525 8.92949C11.2555 9.07871 11.3318 9.20461 11.3815 9.30778C11.4312 9.41073 11.4561 9.51203 11.4561 9.6114C11.4561 9.75341 11.3549 9.93088 11.1525 10.144C10.95 10.357 10.73 10.5523 10.492 10.7298C10.2542 10.9072 10.0339 11.0955 9.83154 11.2942C9.62911 11.4931 9.52788 11.6566 9.52788 11.7843C9.52788 11.8483 9.54568 11.9282 9.58113 12.024C9.61658 12.1199 9.64676 12.1927 9.67161 12.2424C9.69647 12.2922 9.7462 12.3773 9.82083 12.4981C9.89535 12.6188 9.93628 12.6863 9.94337 12.7005C10.4831 13.6736 11.1011 14.508 11.797 15.2042C12.493 15.8999 13.3275 16.5179 14.3004 17.0577C14.3146 17.0649 14.3819 17.1057 14.503 17.1803C14.6238 17.2551 14.7088 17.3047 14.7584 17.3297C14.8084 17.3542 14.8812 17.3846 14.977 17.4201C15.0728 17.4554 15.1527 17.4733 15.2168 17.4733C15.3445 17.4733 15.5079 17.3721 15.7069 17.1696C15.9056 16.9672 16.0938 16.7472 16.2713 16.5092C16.4488 16.271 16.6441 16.051 16.8571 15.8485C17.0701 15.6462 17.2475 15.5449 17.3895 15.5449C17.489 15.5449 17.5902 15.5699 17.6932 15.6194C17.7964 15.6692 17.9223 15.7456 18.0715 15.8485C18.2207 15.9517 18.3095 16.0137 18.3378 16.035C18.5152 16.1414 18.7051 16.2515 18.9078 16.3651C19.1101 16.4788 19.3357 16.6031 19.5843 16.7381C19.8327 16.8731 20.0246 16.9795 20.1593 17.0577Z"/>
</mask>
<path d="M20.9689 17.6223L20.4944 17.7798L20.5009 17.7995L20.5091 17.8186L20.9689 17.6223ZM20.1593 17.0577L19.9081 17.49L19.9217 17.498L19.9359 17.5051L20.1593 17.0577ZM21.0008 17.8466L20.5008 17.8455V17.8466H21.0008ZM20.8942 18.5976L20.407 18.4852L20.4069 18.4856L20.8942 18.5976ZM20.6705 19.3272L20.2131 19.125L20.2094 19.1337L20.6705 19.3272ZM19.3711 20.4567L19.6095 20.8962L19.6136 20.894L19.3711 20.4567ZM16.8303 20.9629L16.7618 21.4582L16.7632 21.4584L16.8303 20.9629ZM16.2176 20.8294L16.082 21.3107L16.0822 21.3108L16.2176 20.8294ZM15.7117 20.6748L15.8791 20.2036L15.879 20.2036L15.7117 20.6748ZM15.1204 20.4564L14.9445 20.9244L14.945 20.9246L15.1204 20.4564ZM14.5986 20.2646L14.4303 20.7355L14.4413 20.7392L14.5986 20.2646ZM12.7342 19.3803L12.9987 18.956L12.9968 18.9548L12.7342 19.3803ZM9.91639 17.0846L9.56282 17.4381L9.56284 17.4381L9.91639 17.0846ZM7.62082 14.2666L8.04636 14.0041L8.04515 14.0021L7.62082 14.2666ZM6.73668 12.4023L6.26223 12.5604L6.2658 12.5704L6.73668 12.4023ZM6.54496 11.8803L7.01319 11.7049L7.01312 11.7048L6.54496 11.8803ZM6.3266 11.2891L5.85532 11.4561L5.85533 11.4561L6.3266 11.2891ZM6.17223 10.7831L6.65357 10.6478L6.65352 10.6476L6.17223 10.7831ZM6.03899 10.1705L5.54362 10.2384L5.54363 10.2385L6.03899 10.1705ZM6.545 7.62978L6.10772 7.38727L6.10553 7.39131L6.545 7.62978ZM7.67425 6.3303L7.86781 6.7914L7.87587 6.78785L7.67425 6.3303ZM8.40403 6.10657L8.516 6.59387L8.51621 6.59382L8.40403 6.10657ZM9.37881 6.03205L9.18194 6.49166L9.20128 6.49994L9.22124 6.50657L9.37881 6.03205ZM9.94329 6.84157L9.49605 7.06511L9.50296 7.07894L9.51071 7.09232L9.94329 6.84157ZM10.2628 7.41676L9.82344 7.65534L9.82348 7.65541L10.2628 7.41676ZM10.6358 8.09329L11.0717 7.84832L11.0717 7.84829L10.6358 8.09329ZM10.9659 8.66311L10.5372 8.92029L10.5503 8.94213L10.5655 8.96252L10.9659 8.66311ZM11.1525 8.92949L11.5639 8.64541L11.5638 8.64525L11.1525 8.92949ZM11.3815 9.30778L10.9311 9.52478L10.9312 9.52503L11.3815 9.30778ZM11.1525 10.144L11.5149 10.4885L11.515 10.4883L11.1525 10.144ZM10.492 10.7298L10.1932 10.3289L10.193 10.329L10.492 10.7298ZM9.83154 11.2942L9.48119 10.9375L9.48113 10.9376L9.83154 11.2942ZM9.67161 12.2424L10.1191 12.0193L10.1188 12.0186L9.67161 12.2424ZM9.82083 12.4981L10.2463 12.2354L10.2462 12.2353L9.82083 12.4981ZM9.94337 12.7005L9.49593 12.9237L9.50082 12.9335L9.50613 12.943L9.94337 12.7005ZM11.797 15.2042L11.4433 15.5576L11.4435 15.5578L11.797 15.2042ZM14.3004 17.0577L14.0578 17.4949L14.0668 17.4999L14.0759 17.5045L14.3004 17.0577ZM14.503 17.1803L14.7662 16.7552L14.7653 16.7546L14.503 17.1803ZM14.7584 17.3297L14.5329 17.776L14.5383 17.7787L14.7584 17.3297ZM14.977 17.4201L14.8032 17.889L14.8042 17.8893L14.977 17.4201ZM15.7069 17.1696L16.0636 17.52L16.0638 17.5198L15.7069 17.1696ZM16.2713 16.5092L16.6721 16.8081L16.6722 16.8079L16.2713 16.5092ZM16.8571 15.8485L16.5128 15.4859L16.5126 15.4862L16.8571 15.8485ZM17.6932 15.6194L17.9106 15.1691L17.9099 15.1688L17.6932 15.6194ZM18.0715 15.8485L18.3561 15.4373L18.3553 15.4368L18.0715 15.8485ZM18.3378 16.035L18.0375 16.4348L18.0583 16.4505L18.0807 16.4639L18.3378 16.035ZM18.9078 16.3651L19.1527 15.9292L19.1523 15.929L18.9078 16.3651ZM19.5843 16.7381L19.8231 16.2988L19.8229 16.2987L19.5843 16.7381ZM1.5 4.8C1.5 2.97746 2.97746 1.5 4.8 1.5V0.5C2.42518 0.5 0.5 2.42517 0.5 4.8H1.5ZM1.5 22.2V4.8H0.5V22.2H1.5ZM4.8 25.5C2.97746 25.5 1.5 24.0225 1.5 22.2H0.5C0.5 24.5748 2.42517 26.5 4.8 26.5V25.5ZM22.2 25.5H4.8V26.5H22.2V25.5ZM25.5 22.2C25.5 24.0225 24.0225 25.5 22.2 25.5V26.5C24.5748 26.5 26.5 24.5748 26.5 22.2H25.5ZM25.5 4.8V22.2H26.5V4.8H25.5ZM22.2 1.5C24.0225 1.5 25.5 2.97746 25.5 4.8H26.5C26.5 2.42518 24.5748 0.5 22.2 0.5V1.5ZM4.8 1.5H22.2V0.5H4.8V1.5ZM21.4435 17.4648C21.3978 17.3273 21.3123 17.2265 21.2501 17.1636C21.1822 17.0948 21.1024 17.0321 21.0207 16.9751C20.8569 16.8608 20.6405 16.7392 20.3827 16.6104L19.9359 17.5051C20.1754 17.6247 20.3426 17.7213 20.4487 17.7953C20.5018 17.8324 20.5286 17.8562 20.5388 17.8665C20.5547 17.8826 20.5188 17.8533 20.4944 17.7798L21.4435 17.4648ZM21.5008 17.8477C21.5011 17.726 21.4903 17.5701 21.4287 17.4259L20.5091 17.8186C20.503 17.8043 20.5 17.7938 20.4987 17.7891C20.4975 17.7842 20.4975 17.783 20.498 17.7864C20.4985 17.7897 20.4992 17.7963 20.4998 17.8065C20.5004 17.8166 20.5008 17.8295 20.5008 17.8455L21.5008 17.8477ZM21.3814 18.7099C21.4565 18.3844 21.5008 18.0925 21.5008 17.8466H20.5008C20.5008 17.9844 20.4744 18.193 20.407 18.4852L21.3814 18.7099ZM21.1278 19.5294C21.2247 19.3102 21.3074 19.032 21.3815 18.7095L20.4069 18.4856C20.339 18.7812 20.2731 18.9895 20.2132 19.125L21.1278 19.5294ZM19.6136 20.894C19.9908 20.6848 20.3103 20.4721 20.5618 20.2535C20.8103 20.0375 21.0164 19.7951 21.1315 19.5207L20.2094 19.1337C20.1754 19.2147 20.0904 19.3382 19.9058 19.4987C19.7241 19.6566 19.4685 19.831 19.1286 20.0194L19.6136 20.894ZM17.3896 21.5C18.1388 21.5 18.8807 21.2915 19.6095 20.8962L19.1327 20.0172C18.5263 20.3461 17.9469 20.5 17.3896 20.5V21.5ZM16.7632 21.4584C16.967 21.4859 17.1759 21.5 17.3896 21.5V20.5C17.22 20.5 17.0559 20.4888 16.8973 20.4674L16.7632 21.4584ZM16.0822 21.3108C16.3258 21.3793 16.5528 21.4293 16.7618 21.4582L16.8987 20.4676C16.7456 20.4464 16.5645 20.4076 16.353 20.3481L16.0822 21.3108ZM15.5443 21.1459C15.6707 21.1909 15.8529 21.2461 16.082 21.3107L16.3533 20.3482C16.1283 20.2848 15.9727 20.2369 15.8791 20.2036L15.5443 21.1459ZM14.945 20.9246C15.2288 21.031 15.4297 21.1052 15.5443 21.1459L15.879 20.2036C15.7736 20.1662 15.5803 20.0948 15.2959 19.9882L14.945 20.9246ZM14.4413 20.7392C14.4936 20.7565 14.6566 20.8162 14.9445 20.9244L15.2964 19.9884C15.0163 19.8831 14.8315 19.815 14.7559 19.79L14.4413 20.7392ZM12.4697 19.8047C13.051 20.1669 13.7056 20.4764 14.4303 20.7354L14.7669 19.7938C14.0997 19.5553 13.5111 19.2754 12.9987 18.956L12.4697 19.8047ZM9.56284 17.4381C10.5524 18.4276 11.5217 19.2196 12.4716 19.8058L12.9968 18.9548C12.1285 18.419 11.2193 17.6803 10.2699 16.731L9.56284 17.4381ZM7.19529 14.5291C7.78129 15.479 8.5733 16.4485 9.56282 17.4381L10.27 16.731C9.32067 15.7817 8.582 14.8723 8.04635 14.0041L7.19529 14.5291ZM6.2658 12.5704C6.52466 13.2954 6.83421 13.9498 7.19649 14.5311L8.04515 14.0021C7.72571 13.4896 7.44578 12.9013 7.20756 12.2341L6.2658 12.5704ZM6.07673 12.0557C6.18476 12.3441 6.24467 12.5074 6.26233 12.5604L7.21102 12.2442C7.18607 12.1693 7.11799 11.9847 7.01319 11.7049L6.07673 12.0557ZM5.85533 11.4561C5.89604 11.571 5.97034 11.772 6.07679 12.0559L7.01312 11.7048C6.90644 11.4203 6.83514 11.2272 6.79787 11.122L5.85533 11.4561ZM5.69089 10.9184C5.75542 11.148 5.81059 11.3299 5.85532 11.4561L6.79788 11.1221C6.7647 11.0284 6.7168 10.8727 6.65357 10.6478L5.69089 10.9184ZM5.54363 10.2385C5.57235 10.4478 5.6224 10.6751 5.69094 10.9186L6.65352 10.6476C6.59408 10.4365 6.55532 10.2554 6.53434 10.1025L5.54363 10.2385ZM5.50171 9.61121C5.50171 9.82447 5.51554 10.0336 5.54362 10.2384L6.53435 10.1026C6.51273 9.94486 6.50171 9.78116 6.50171 9.61121H5.50171ZM6.10553 7.39131C5.71007 8.12007 5.50171 8.86202 5.50171 9.61121H6.50171C6.50171 9.05376 6.65552 8.47443 6.98446 7.86826L6.10553 7.39131ZM7.48073 5.86927C7.20639 5.98443 6.96408 6.1906 6.7482 6.43903C6.52969 6.69049 6.31697 7.01002 6.10774 7.38728L6.98225 7.87229C7.17078 7.53235 7.34513 7.27666 7.50303 7.09495C7.66357 6.91021 7.787 6.82524 7.86778 6.79133L7.48073 5.86927ZM8.29206 5.61927C7.96914 5.69347 7.69149 5.77631 7.47264 5.87275L7.87587 6.78785C8.01217 6.72779 8.22086 6.66168 8.516 6.59387L8.29206 5.61927ZM9.15512 5.5C8.90916 5.5 8.61722 5.54441 8.29186 5.61931L8.51621 6.59382C8.80869 6.52649 9.01734 6.5 9.15512 6.5V5.5ZM9.57569 5.57244C9.43177 5.5108 9.27548 5.5 9.15512 5.5V6.5C9.17106 6.5 9.184 6.50043 9.19422 6.50106C9.2045 6.5017 9.21111 6.50247 9.21456 6.50297C9.2181 6.50348 9.21698 6.5035 9.21212 6.50225C9.2074 6.50103 9.19671 6.49799 9.18194 6.49166L9.57569 5.57244ZM10.3905 6.61803C10.2618 6.36043 10.1402 6.14413 10.026 5.98038C9.96901 5.89864 9.90628 5.81892 9.83753 5.75096C9.77463 5.68878 9.67388 5.60319 9.53639 5.55753L9.22124 6.50657C9.14769 6.48215 9.11842 6.44623 9.13452 6.46215C9.14478 6.47229 9.1686 6.4991 9.20569 6.5523C9.27969 6.65843 9.37637 6.82566 9.49605 7.06511L10.3905 6.61803ZM10.7023 7.17818C10.5668 6.92863 10.4577 6.73191 10.3759 6.59083L9.51071 7.09232C9.58536 7.22109 9.68916 7.40802 9.82344 7.65534L10.7023 7.17818ZM11.0717 7.84829C10.9594 7.64864 10.8365 7.42528 10.7022 7.17811L9.82348 7.65541C9.95923 7.90533 10.0846 8.13317 10.1999 8.3383L11.0717 7.84829ZM11.3947 8.40593C11.2911 8.23315 11.1835 8.04732 11.0717 7.84832L10.1999 8.33827C10.3156 8.54412 10.428 8.73822 10.5372 8.92029L11.3947 8.40593ZM11.5638 8.64525C11.4635 8.50006 11.3948 8.40166 11.3664 8.3637L10.5655 8.96252C10.5798 8.98165 10.6353 9.06064 10.7411 9.21374L11.5638 8.64525ZM11.832 9.09078C11.7664 8.95466 11.674 8.80487 11.5639 8.64541L10.741 9.21357C10.837 9.35255 10.8973 9.45455 10.9311 9.52478L11.832 9.09078ZM11.9561 9.6114C11.9561 9.42631 11.9093 9.2511 11.8319 9.09053L10.9312 9.52503C10.9531 9.57035 10.9561 9.59776 10.9561 9.6114H11.9561ZM11.515 10.4883C11.633 10.3641 11.7374 10.234 11.8145 10.0987C11.8904 9.96558 11.9561 9.79915 11.9561 9.6114H10.9561C10.9561 9.56566 10.9711 9.55898 10.9458 9.6034C10.9218 9.64556 10.8744 9.71073 10.7899 9.79965L11.515 10.4883ZM10.7908 11.1306C11.0516 10.9362 11.2929 10.722 11.5149 10.4885L10.7901 9.79949C10.6072 9.99193 10.4084 10.1684 10.1932 10.3289L10.7908 11.1306ZM10.1819 11.651C10.3675 11.4687 10.5705 11.295 10.791 11.1305L10.193 10.329C9.93784 10.5194 9.70035 10.7223 9.48119 10.9375L10.1819 11.651ZM10.0279 11.7843C10.0279 11.8492 10.0042 11.869 10.0288 11.8293C10.051 11.7935 10.0971 11.7343 10.182 11.6509L9.48113 10.9376C9.36354 11.0531 9.25782 11.175 9.17877 11.3026C9.10214 11.4263 9.02788 11.5917 9.02788 11.7843H10.0279ZM10.0501 11.8506C10.0383 11.8188 10.0322 11.7969 10.0293 11.7837C10.0262 11.77 10.0279 11.7713 10.0279 11.7843H9.02788C9.02788 11.9324 9.06711 12.0756 9.11217 12.1974L10.0501 11.8506ZM10.1188 12.0186C10.1062 11.9936 10.0835 11.941 10.0501 11.8506L9.11217 12.1974C9.14965 12.2988 9.1873 12.3918 9.22447 12.4661L10.1188 12.0186ZM10.2462 12.2353C10.1708 12.1133 10.1325 12.0461 10.1191 12.0193L9.22413 12.4655C9.26046 12.5383 9.32163 12.6414 9.39547 12.7609L10.2462 12.2353ZM10.3908 12.4774C10.3705 12.4366 10.3106 12.3397 10.2463 12.2354L9.3954 12.7608C9.43244 12.8208 9.46041 12.8664 9.47972 12.8983C9.48944 12.9143 9.49623 12.9257 9.50058 12.9331C9.50162 12.9349 9.5024 12.9362 9.50297 12.9372C9.50355 12.9382 9.50378 12.9386 9.50373 12.9385C9.50373 12.9385 9.50311 12.9374 9.5021 12.9356C9.50128 12.934 9.49894 12.9297 9.49593 12.9237L10.3908 12.4774ZM12.1506 14.8507C11.4915 14.1913 10.9006 13.3955 10.3806 12.458L9.50613 12.943C10.0656 13.9517 10.7107 14.8246 11.4433 15.5576L12.1506 14.8507ZM14.543 16.6205C13.6056 16.1003 12.8097 15.5095 12.1504 14.8505L11.4435 15.5578C12.1764 16.2904 13.0494 16.9354 14.0578 17.4949L14.543 16.6205ZM14.7653 16.7546C14.6605 16.6901 14.5645 16.6309 14.525 16.611L14.0759 17.5045C14.0701 17.5016 14.066 17.4993 14.0646 17.4986C14.0636 17.498 14.0629 17.4977 14.0625 17.4974C14.0621 17.4972 14.0619 17.4971 14.0618 17.4971C14.0618 17.4971 14.0623 17.4973 14.0633 17.4979C14.0644 17.4985 14.0657 17.4993 14.0675 17.5004C14.075 17.5048 14.0865 17.5116 14.1026 17.5214C14.1346 17.5408 14.1804 17.5688 14.2407 17.606L14.7653 16.7546ZM14.9839 16.8834C14.9556 16.8692 14.8869 16.8299 14.7662 16.7552L14.2398 17.6054C14.3607 17.6803 14.4621 17.7402 14.5329 17.776L14.9839 16.8834ZM15.1507 16.9513C15.0621 16.9184 15.0069 16.8947 14.9785 16.8808L14.5383 17.7787C14.6099 17.8138 14.7004 17.8509 14.8032 17.889L15.1507 16.9513ZM15.2168 16.9733C15.2299 16.9733 15.2311 16.9749 15.2172 16.9718C15.2038 16.9688 15.1817 16.9627 15.1497 16.9509L14.8042 17.8893C14.9254 17.9339 15.0686 17.9733 15.2168 17.9733V16.9733ZM15.3502 16.8192C15.2669 16.904 15.2076 16.9501 15.1718 16.9723C15.1321 16.9969 15.152 16.9733 15.2168 16.9733V17.9733C15.4093 17.9733 15.5747 17.8991 15.6984 17.8224C15.826 17.7434 15.948 17.6377 16.0636 17.52L15.3502 16.8192ZM15.8705 16.2103C15.706 16.4308 15.5324 16.6336 15.35 16.8194L16.0638 17.5198C16.2787 17.3008 16.4816 17.0636 16.6721 16.8081L15.8705 16.2103ZM16.5126 15.4862C16.2791 15.7082 16.0649 15.9494 15.8704 16.2104L16.6722 16.8079C16.8327 16.5926 17.0092 16.3939 17.2017 16.2108L16.5126 15.4862ZM17.3895 15.0449C17.2017 15.0449 17.0352 15.1107 16.9022 15.1865C16.7669 15.2637 16.6369 15.3681 16.5128 15.4859L17.2015 16.211C17.2904 16.1266 17.3555 16.0792 17.3977 16.0552C17.4421 16.0298 17.4353 16.0449 17.3895 16.0449V15.0449ZM17.9099 15.1688C17.7499 15.0918 17.5749 15.0449 17.3895 15.0449V16.0449C17.4031 16.0449 17.4306 16.0479 17.4765 16.07L17.9099 15.1688ZM18.3553 15.4368C18.196 15.327 18.0464 15.2347 17.9106 15.1691L17.4758 16.0696C17.5463 16.1037 17.6485 16.1642 17.7878 16.2602L18.3553 15.4368ZM18.6381 15.6353C18.5998 15.6065 18.5002 15.5371 18.3561 15.4373L17.787 16.2596C17.9412 16.3663 18.0191 16.421 18.0375 16.4348L18.6381 15.6353ZM19.1523 15.929C18.9536 15.8176 18.7679 15.7099 18.5949 15.6062L18.0807 16.4639C18.2626 16.5729 18.4567 16.6854 18.6633 16.8013L19.1523 15.929ZM19.8229 16.2987C19.5759 16.1646 19.3525 16.0414 19.1527 15.9292L18.6629 16.801C18.8677 16.9161 19.0955 17.0417 19.3457 17.1775L19.8229 16.2987ZM20.4106 16.6254C20.2693 16.5434 20.0721 16.4341 19.8231 16.2988L19.3456 17.1774C19.5932 17.312 19.7799 17.4156 19.9081 17.49L20.4106 16.6254Z" fill="#ED1B24" mask="url(#path-1-outside-1_455:17)"/>
</svg>
