<svg width="27" height="27" viewBox="0 0 27 27" fill="none" xmlns="http://www.w3.org/2000/svg">
<mask id="path-1-outside-1_455:9" maskUnits="userSpaceOnUse" x="0" y="0" width="27" height="27" fill="black">
<rect fill="white" width="27" height="27"/>
<path fill-rule="evenodd" clip-rule="evenodd" d="M4.8 1C2.70132 1 1 2.70132 1 4.8V22.2C1 24.2987 2.70132 26 4.8 26H22.2C24.2987 26 26 24.2987 26 22.2V4.8C26 2.70132 24.2987 1 22.2 1H4.8ZM13.4935 19H13.5105C13.7279 19 18.8518 18.9969 20.1427 18.6805C20.8733 18.498 21.4444 17.9713 21.6434 17.2965C21.8855 16.05 22.0044 14.7859 21.9984 13.5196C22.0151 12.2481 21.8994 10.9781 21.6528 9.72709C21.4553 9.05282 20.8857 8.52599 20.1563 8.34306C18.8407 8.00942 13.5589 8 13.5054 8H13.4876C13.2702 8 8.14721 8 6.85457 8.31402C6.12488 8.5071 5.5566 9.03744 5.35471 9.71375C5.11292 10.9617 4.99438 12.2274 5.00055 13.4953C4.99095 14.761 5.10636 16.025 5.34537 17.2713C5.54185 17.947 6.11265 18.475 6.84353 18.6569C8.17268 18.9906 13.4409 19 13.4935 19ZM11.8077 15.8543L11.8119 11.1441L16.2342 13.4992L11.8077 15.8543Z"/>
</mask>
<path d="M20.1427 18.6805L20.2617 19.1661L20.2638 19.1656L20.1427 18.6805ZM21.6434 17.2965L22.123 17.4379L22.1297 17.4151L22.1342 17.3918L21.6434 17.2965ZM21.9984 13.5196L21.4984 13.513L21.4984 13.522L21.9984 13.5196ZM21.6528 9.72709L22.1433 9.63038L22.1389 9.60823L22.1326 9.58657L21.6528 9.72709ZM20.1563 8.34306L20.0334 8.82772L20.0347 8.82804L20.1563 8.34306ZM6.85457 8.31402L6.73652 7.82805L6.72667 7.83065L6.85457 8.31402ZM5.35471 9.71375L4.8756 9.57072L4.86854 9.59439L4.86384 9.61864L5.35471 9.71375ZM5.00055 13.4953L5.50058 13.4991L5.50055 13.4929L5.00055 13.4953ZM5.34537 17.2713L4.85432 17.3655L4.85872 17.3885L4.86526 17.411L5.34537 17.2713ZM6.84353 18.6569L6.96526 18.172L6.96433 18.1718L6.84353 18.6569ZM11.8119 11.1441L12.047 10.7028L11.3127 10.3117L11.3119 11.1436L11.8119 11.1441ZM11.8077 15.8543L11.3077 15.8539L11.3069 16.6871L12.0425 16.2958L11.8077 15.8543ZM16.2342 13.4992L16.4691 13.9406L17.2983 13.4994L16.4693 13.0579L16.2342 13.4992ZM1.5 4.8C1.5 2.97746 2.97746 1.5 4.8 1.5V0.5C2.42518 0.5 0.5 2.42517 0.5 4.8H1.5ZM1.5 22.2V4.8H0.5V22.2H1.5ZM4.8 25.5C2.97746 25.5 1.5 24.0225 1.5 22.2H0.5C0.5 24.5748 2.42517 26.5 4.8 26.5V25.5ZM22.2 25.5H4.8V26.5H22.2V25.5ZM25.5 22.2C25.5 24.0225 24.0225 25.5 22.2 25.5V26.5C24.5748 26.5 26.5 24.5748 26.5 22.2H25.5ZM25.5 4.8V22.2H26.5V4.8H25.5ZM22.2 1.5C24.0225 1.5 25.5 2.97746 25.5 4.8H26.5C26.5 2.42518 24.5748 0.5 22.2 0.5V1.5ZM4.8 1.5H22.2V0.5H4.8V1.5ZM13.5105 18.5H13.4935V19.5H13.5105V18.5ZM20.0237 18.1949C19.7487 18.2622 19.2275 18.32 18.5588 18.365C17.9029 18.4092 17.142 18.439 16.4103 18.4591C14.9476 18.4992 13.6176 18.5 13.5105 18.5V19.5C13.6209 19.5 14.9615 19.4992 16.4378 19.4587C17.1756 19.4384 17.9513 19.4082 18.626 19.3628C19.2879 19.3182 19.8912 19.2569 20.2617 19.1661L20.0237 18.1949ZM21.1638 17.155C21.0191 17.6458 20.5949 18.0522 20.0216 18.1954L20.2638 19.1656C21.1516 18.9439 21.8697 18.2967 22.123 17.4379L21.1638 17.155ZM21.4984 13.522C21.5042 14.7554 21.3885 15.9868 21.1526 17.2011L22.1342 17.3918C22.3826 16.1133 22.5045 14.8164 22.4984 13.5173L21.4984 13.522ZM21.1622 9.8238C21.4021 11.0409 21.5147 12.2763 21.4985 13.513L22.4984 13.5262C22.5156 12.2199 22.3966 10.9153 22.1433 9.63038L21.1622 9.8238ZM20.0347 8.82804C20.6067 8.97151 21.0294 9.37766 21.1729 9.86762L22.1326 9.58657C21.8812 8.72798 21.1646 8.08046 20.2779 7.85808L20.0347 8.82804ZM13.5054 8.5C13.5055 8.5 13.5055 8.5 13.5055 8.5C13.5056 8.5 13.5057 8.5 13.5059 8.5C13.5062 8.5 13.5065 8.5 13.507 8.5C13.508 8.5 13.5093 8.5 13.5109 8.50001C13.5141 8.50001 13.5186 8.50002 13.5243 8.50004C13.5357 8.50006 13.5519 8.50011 13.5727 8.50018C13.6143 8.50033 13.674 8.5006 13.7496 8.50105C13.9009 8.50195 14.1158 8.50362 14.3764 8.50665C14.8977 8.51272 15.6009 8.52428 16.3428 8.5462C17.0855 8.56814 17.8632 8.60035 18.5346 8.64748C19.2194 8.69554 19.7537 8.75679 20.0334 8.82772L20.2792 7.85841C19.9011 7.76251 19.2819 7.69747 18.6046 7.64993C17.914 7.60146 17.1213 7.56876 16.3724 7.54663C14.874 7.50237 13.5348 7.5 13.5054 7.5V8.5ZM13.4876 8.5H13.5054V7.5H13.4876V8.5ZM6.9726 8.79989C7.24825 8.73292 7.77007 8.67576 8.43884 8.63138C9.09494 8.58784 9.85594 8.55862 10.5876 8.53907C12.0504 8.5 13.3802 8.5 13.4876 8.5V7.5C13.3776 7.5 12.0372 7.5 10.5609 7.53943C9.82314 7.55914 9.04744 7.58879 8.37263 7.63357C7.7105 7.67751 7.10721 7.7381 6.73654 7.82815L6.9726 8.79989ZM5.83382 9.85677C5.98185 9.36087 6.407 8.94966 6.98247 8.79738L6.72667 7.83065C5.84276 8.06454 5.13135 8.71401 4.8756 9.57072L5.83382 9.85677ZM5.50055 13.4929C5.49453 12.2578 5.61001 11.0248 5.84558 9.80885L4.86384 9.61864C4.61584 10.8987 4.49423 12.1971 4.50056 13.4977L5.50055 13.4929ZM5.83642 17.1772C5.60359 15.963 5.49118 14.7319 5.50054 13.4991L4.50057 13.4915C4.49071 14.7902 4.60913 16.087 4.85432 17.3655L5.83642 17.1772ZM6.96433 18.1718C6.39139 18.0291 5.96814 17.6223 5.82548 17.1317L4.86526 17.411C5.11557 18.2718 5.83391 18.9208 6.72273 19.1421L6.96433 18.1718ZM13.4935 18.5C13.4935 18.5 13.4935 18.5 13.4934 18.5C13.4933 18.5 13.4932 18.5 13.4931 18.5C13.4928 18.5 13.4924 18.5 13.492 18.5C13.491 18.5 13.4898 18.5 13.4882 18.5C13.4849 18.5 13.4805 18.5 13.4748 18.5C13.4635 18.4999 13.4473 18.4999 13.4266 18.4998C13.3852 18.4997 13.3256 18.4994 13.2502 18.499C13.0993 18.498 12.885 18.4964 12.625 18.4933C12.1049 18.4873 11.403 18.4757 10.662 18.4538C9.92024 18.4319 9.14297 18.3997 8.47091 18.3525C7.78588 18.3045 7.24906 18.2432 6.96526 18.172L6.7218 19.1419C7.10258 19.2375 7.72272 19.3025 8.40095 19.3501C9.09214 19.3985 9.88443 19.4312 10.6324 19.4534C12.129 19.4976 13.4646 19.5 13.4935 19.5V18.5ZM11.3119 11.1436L11.3077 15.8539L12.3077 15.8548L12.3119 11.1445L11.3119 11.1436ZM16.4693 13.0579L12.047 10.7028L11.5769 11.5854L15.9992 13.9405L16.4693 13.0579ZM12.0425 16.2958L16.4691 13.9406L15.9994 13.0578L11.5728 15.4129L12.0425 16.2958Z" fill="#ED1B24" mask="url(#path-1-outside-1_455:9)"/>
</svg>
