<svg width="25" height="25" viewBox="0 0 25 25" fill="none" xmlns="http://www.w3.org/2000/svg">
<path fill-rule="evenodd" clip-rule="evenodd" d="M3.8 0C1.70132 0 0 1.70132 0 3.8V21.2C0 23.2987 1.70132 25 3.8 25H21.2C23.2987 25 25 23.2987 25 21.2V3.8C25 1.70132 23.2987 0 21.2 0H3.8ZM12.4935 18H12.5105C12.7279 18 17.8518 17.9969 19.1427 17.6805C19.8733 17.498 20.4444 16.9713 20.6434 16.2965C20.8855 15.05 21.0044 13.7859 20.9984 12.5196C21.0151 11.2481 20.8994 9.97809 20.6528 8.72709C20.4553 8.05282 19.8857 7.52599 19.1563 7.34306C17.8407 7.00942 12.5589 7 12.5054 7H12.4876C12.2702 7 7.14721 7 5.85457 7.31402C5.12488 7.5071 4.5566 8.03744 4.35471 8.71375C4.11292 9.96173 3.99438 11.2274 4.00055 12.4953C3.99095 13.761 4.10636 15.025 4.34537 16.2713C4.54185 16.947 5.11265 17.475 5.84353 17.6569C7.17268 17.9906 12.4409 18 12.4935 18ZM10.8077 14.8543L10.8119 10.1441L15.2342 12.4992L10.8077 14.8543Z" fill="white"/>
</svg>
